<svg xmlns="http://www.w3.org/2000/svg" xmlns:xlink="http://www.w3.org/1999/xlink" width="76" height="105" viewBox="0 0 76 105"><defs><path id="ke1ha" d="M397 4989c20.987 0 38 15.27 38 38.228 0 23.885-38 66.772-38 66.772s-38-42.85-38-66.772c0-22.96 17.013-38.228 38-38.228z"/><path id="ke1hb" d="M397 5013.466c7.835 0 14.187 6.39 14.187 14.272 0 7.882-6.352 14.271-14.187 14.271-7.835 0-14.187-6.39-14.187-14.271 0-7.883 6.352-14.272 14.187-14.272z"/><path id="ke1hc" d="M397 5004.29c12.872 0 23.307 10.498 23.307 23.448 0 12.949-10.435 23.446-23.307 23.446-12.872 0-23.307-10.497-23.307-23.446 0-12.95 10.435-23.447 23.307-23.447z"/></defs><g><g transform="translate(-359 -4989)"><g><use fill="#485563" xlink:href="#ke1ha"/></g><g><use fill="#fff" xlink:href="#ke1hb"/></g><g><use fill="#fff" xlink:href="#ke1hc"/></g><g><g><g><text fill="#29323c" style="line-height:36px" dominant-baseline="text-before-edge" font-family="'Airbag','Airbag-Regular'" font-size="40" font-style="none" font-weight="400" transform="translate(387 5015)"><tspan letter-spacing="-1" style="font-kerning:normal">Z</tspan></text></g></g></g></g></g></svg>